<svg width="12" height="12" viewBox="0 0 12 12" fill="none" xmlns="http://www.w3.org/2000/svg">
<path d="M11.0306 9.96936C11.1715 10.1103 11.2506 10.3014 11.2506 10.5006C11.2506 10.6999 11.1715 10.891 11.0306 11.0319C10.8897 11.1728 10.6986 11.2519 10.4993 11.2519C10.3001 11.2519 10.109 11.1728 9.9681 11.0319L5.99997 7.06249L2.0306 11.0306C1.8897 11.1715 1.69861 11.2507 1.49935 11.2507C1.30009 11.2507 1.10899 11.1715 0.968098 11.0306C0.827202 10.8897 0.748047 10.6986 0.748047 10.4994C0.748047 10.3001 0.827202 10.109 0.968098 9.96811L4.93747 5.99999L0.969348 2.03061C0.828451 1.88972 0.749297 1.69862 0.749297 1.49936C0.749297 1.30011 0.828451 1.10901 0.969348 0.968112C1.11024 0.827216 1.30134 0.748061 1.5006 0.748061C1.69986 0.748061 1.89095 0.827216 2.03185 0.968112L5.99997 4.93749L9.96935 0.967487C10.1102 0.826591 10.3013 0.747437 10.5006 0.747437C10.6999 0.747437 10.891 0.826591 11.0318 0.967487C11.1727 1.10838 11.2519 1.29948 11.2519 1.49874C11.2519 1.69799 11.1727 1.88909 11.0318 2.02999L7.06247 5.99999L11.0306 9.96936Z" fill="#60A5FA"/>
</svg>
